<?xml version="1.0" encoding="utf-8"?>
<!-- Generator: Adobe Illustrator 19.0.0, SVG Export Plug-In . SVG Version: 6.00 Build 0)  -->
<svg version="1.1" id="Layer_1" xmlns="http://www.w3.org/2000/svg" xmlns:xlink="http://www.w3.org/1999/xlink" x="0px" y="0px"
	 viewBox="-235.2 357.9 60.3 52.3" style="enable-background:new -235.2 357.9 60.3 52.3;" xml:space="preserve">
<style type="text/css">
	.st0{fill:none;}
</style>
<g id="common">
	<path class="st0" d="M-225.9,372.2c1.7,0,3.2-1.4,3.2-3.2c0-1.7-1.4-3.2-3.2-3.2c-1.7,0-3.2,1.4-3.2,3.2
		C-229.1,370.8-227.6,372.2-225.9,372.2z"/>
	<path class="st0" d="M-199.4,377c0-3.1-2.5-5.6-5.6-5.6c-3.1,0-5.6,2.5-5.6,5.6v8.9h11.3V377z"/>
	<path class="st0" d="M-220.3,381.5c0-3.1-2.5-5.6-5.6-5.6c-3.1,0-5.6,2.5-5.6,5.6v8.9h11.3V381.5z"/>
	<path class="st0" d="M-205,367.8c1.7,0,3.2-1.4,3.2-3.2c0-1.7-1.4-3.2-3.2-3.2c-1.7,0-3.2,1.4-3.2,3.2
		C-208.2,366.4-206.7,367.8-205,367.8z"/>
	<path class="st0" d="M-184.1,376.6c1.7,0,3.2-1.4,3.2-3.2c0-1.7-1.4-3.2-3.2-3.2s-3.2,1.4-3.2,3.2
		C-187.3,375.2-185.8,376.6-184.1,376.6z"/>
	<path class="st0" d="M-184.1,380.2c-3.1,0-5.6,2.5-5.6,5.6v8.9h11.3h0v-8.9C-178.5,382.8-181,380.2-184.1,380.2z"/>
	<path class="st0" d="M-199.4,402.4v-7h-11.2v2.6c0,1-0.8,1.8-1.8,1.8h-19.2v6.7h53.1v-2.3h-19.1
		C-198.6,404.2-199.4,403.4-199.4,402.4z"/>
	<path d="M-176.7,400.6h-19.1v-7c0-1-0.8-1.8-1.8-1.8h-14.8c-1,0-1.8,0.8-1.8,1.8v2.6h-19.2c-1,0-1.8,0.8-1.8,1.8v10.3
		c0,1,0.8,1.8,1.8,1.8h56.7c1,0,1.8-0.8,1.8-1.8v-5.9C-174.8,401.4-175.7,400.6-176.7,400.6z M-178.5,406.5h-53.1v-6.7h19.2
		c1,0,1.8-0.8,1.8-1.8v-2.6h11.2v7c0,1,0.8,1.8,1.8,1.8h19.1V406.5z"/>
	<path d="M-179.2,378c1.1-1.2,1.8-2.8,1.8-4.6c0-3.7-3-6.8-6.8-6.8c-3.7,0-6.8,3-6.8,6.8c0,1.8,0.7,3.4,1.8,4.6
		c-2.6,1.6-4.3,4.5-4.3,7.8v10.8c0,1,0.8,1.8,1.8,1.8h14.9c1,0,1.8-0.8,1.8-1.8v-10.8C-174.8,382.6-176.6,379.7-179.2,378z
		 M-184.1,370.3c1.7,0,3.2,1.4,3.2,3.2c0,1.7-1.4,3.2-3.2,3.2s-3.2-1.4-3.2-3.2C-187.3,371.7-185.8,370.3-184.1,370.3z
		 M-178.5,394.8L-178.5,394.8h-11.3v-8.9c0-3.1,2.5-5.6,5.6-5.6c3.1,0,5.6,2.5,5.6,5.6V394.8z"/>
	<path d="M-233.3,394h14.9c1,0,1.8-0.8,1.8-1.8v-10.8c0-3.3-1.7-6.2-4.3-7.8c1.1-1.2,1.8-2.8,1.8-4.6c0-3.7-3-6.8-6.8-6.8
		c-3.7,0-6.8,3-6.8,6.8c0,1.8,0.7,3.4,1.8,4.6c-2.6,1.6-4.3,4.5-4.3,7.8v10.8C-235.2,393.2-234.3,394-233.3,394z M-225.9,365.9
		c1.7,0,3.2,1.4,3.2,3.2c0,1.7-1.4,3.2-3.2,3.2c-1.7,0-3.2-1.4-3.2-3.2C-229.1,367.3-227.6,365.9-225.9,365.9z M-231.5,381.5
		c0-3.1,2.5-5.6,5.6-5.6c3.1,0,5.6,2.5,5.6,5.6v8.9h-11.3V381.5z"/>
</g>
<g id="hover">
	<path class="st0" d="M-205,367.8c1.7,0,3.2-1.4,3.2-3.2c0-1.7-1.4-3.2-3.2-3.2c-1.7,0-3.2,1.4-3.2,3.2
		C-208.2,366.4-206.7,367.8-205,367.8z"/>
	<path class="st0" d="M-205,371.4c-3.1,0-5.6,2.5-5.6,5.6v8.9h11.3V377C-199.4,373.9-201.9,371.4-205,371.4z"/>
	<path d="M-200.1,369.2c1.1-1.2,1.8-2.8,1.8-4.6c0-3.7-3-6.8-6.8-6.8c-3.7,0-6.8,3-6.8,6.8c0,1.8,0.7,3.4,1.8,4.6
		c-2.6,1.6-4.3,4.5-4.3,7.8v10.8c0,1,0.8,1.8,1.8,1.8h14.9c1,0,1.8-0.8,1.8-1.8V377C-195.7,373.7-197.5,370.9-200.1,369.2z
		 M-205,361.5c1.7,0,3.2,1.4,3.2,3.2c0,1.7-1.4,3.2-3.2,3.2c-1.7,0-3.2-1.4-3.2-3.2C-208.2,362.9-206.7,361.5-205,361.5z
		 M-199.4,386h-11.3V377c0-3.1,2.5-5.6,5.6-5.6c3.1,0,5.6,2.5,5.6,5.6V386z"/>
</g>
</svg>
