<?xml version="1.0" encoding="utf-8"?>
<!-- Generator: Adobe Illustrator 19.0.0, SVG Export Plug-In . SVG Version: 6.00 Build 0)  -->
<svg version="1.1" baseProfile="tiny" id="Layer_1" xmlns="http://www.w3.org/2000/svg" xmlns:xlink="http://www.w3.org/1999/xlink"
	 x="0px" y="0px" viewBox="132 69.9 882.9 653.2" xml:space="preserve">
<g id="common">
	<path d="M784.7,656.8c0.3,10-8.5,18-15.8,18H380.5c-11-1.5-15.5-10-15.5-17.8V136.3c0.3-1.3,0.3-3,0.3-4c1-8,9.8-14.5,15.8-14
		h387.5c11.3,1,16.3,9.5,16.3,17.8v89.3c3.7-3.6,7.5-7.2,11.3-10.7l36.7-35.6v-48.8c0-0.8-0.8-4.3-1-6.3c-2-11-6.5-22.5-16-32.8
		c-9.8-11-21.5-16.5-31.5-19.3c-5-1.3-9.5-1.5-14.5-2h-390c-2.3,0.3-4.8,0.3-6.5,0.5c-3.3,0.5-6.5,1.3-9.5,2
		c-2.3,0.8-4.8,1.8-6.5,2.3c-2.3,0.8-4.5,2.3-6.8,3.3c-17.3,8.5-29.3,28.3-32,42.3c-0.5,3.3-1,6.8-1.5,10v532.5
		c0,0.5,0.8,6.8,1.5,10c0.7,3.2,2,6.3,3,9.5c0.8,1.5,1.8,3.5,2.3,5c8,18,30,32,45,34.3c3.5,0.5,7,1.3,10.5,1.5h391
		c0.8,0,6.5-0.8,9.5-1.3s7.5-1.8,10.8-3c8.3-3.3,17-8,25.3-17s12.8-19.3,15-28c0.8-3.8,1.5-7.5,2-11.3V425.2l-48,46.6v185H784.7z"/>
	<rect x="403.9" y="483.1" width="171" height="48"/>
	<rect x="403.9" y="584.1" width="342" height="48"/>
	<rect x="403.9" y="373.1" width="171" height="48"/>
	<path d="M746.2,262.7V162.1H403.5v153h288.3L746.2,262.7z M451.5,210.3h246.8v56.5H451.5V210.3z"/>
</g>
<g id="hover">
	<polygon points="986.4,153.6 957.9,124.1 791.4,284.6 659,412.2 717.5,470.7 784.7,405.6 784.7,405.8 832.7,359.4 832.7,359.2 
		848.4,344.1 1014.9,183.1 	"/>
	<polygon points="610.4,520.1 698.9,490.1 699.9,489.1 641.6,430.8 	"/>
</g>
</svg>
