<?xml version="1.0" encoding="utf-8"?>
<!-- Generator: Adobe Illustrator 19.0.0, SVG Export Plug-In . SVG Version: 6.00 Build 0)  -->
<svg version="1.1" baseProfile="tiny" id="Layer_1" xmlns="http://www.w3.org/2000/svg" xmlns:xlink="http://www.w3.org/1999/xlink"
	 x="0px" y="0px" viewBox="-255 334 143.5 100" xml:space="preserve">
<g id="common">
	<path d="M-203.5,397.2l-7.9,7.9V423c0,3.4,2.9,6.2,6.5,6.2l7.7,0v-7.9l-6.4,0V397.2z"/>
	<path d="M-203.5,347.4h6.4v-7.9h-7.7c-3.6,0-6.5,2.8-6.5,6.2v17.7l7.9,7.8V347.4z"/>
	<path d="M-157.5,342.3l-32.3-8.2c-2-0.5-3.7,1.8-3.7,5.1v89.7c0,3.3,1.7,5.6,3.7,5.1l32.3-8.2c1.4-0.4,2.5-2.8,2.5-5.5v-72.4
		C-155,345.1-156.1,342.6-157.5,342.3z M-180.9,388.9c-2.7,0-4.9-2.2-4.9-4.9c0-2.7,2.2-4.9,4.9-4.9c2.7,0,4.9,2.2,4.9,4.9
		C-176,386.7-178.2,388.9-180.9,388.9z"/>
</g>
<g id="hover">
	<path d="M-198.5,381.1C-198.5,381.1-198.6,381-198.5,381.1l-22.8-22.8c-1.5-1.5-4.1-1.5-5.6,0c-1.5,1.5-1.5,4.1,0,5.6l16.3,16.3
		h-40.5c-2.2,0-3.9,1.8-3.9,4c0,2.2,1.8,4,4,4l40.5,0l-16.6,16.7c-1.5,1.5-1.5,4.1,0,5.6c1.5,1.5,4,1.5,5.6,0l22.6-22.7
		c0.1-0.1,0.2-0.2,0.3-0.4c1-0.7,1.6-1.9,1.6-3.2C-197,382.9-197.6,381.8-198.5,381.1z"/>
</g>
</svg>
