<?xml version="1.0" encoding="utf-8"?>
<!-- Generator: Adobe Illustrator 19.0.0, SVG Export Plug-In . SVG Version: 6.00 Build 0)  -->
<svg version="1.1" id="Layer_1" xmlns:sketch="http://www.bohemiancoding.com/sketch/ns"
	 xmlns="http://www.w3.org/2000/svg" xmlns:xlink="http://www.w3.org/1999/xlink" x="0px" y="0px" viewBox="-249 340 88 88"
	 style="enable-background:new -249 340 88 88;" xml:space="preserve">
<g class="common">
	<path d="M-205,340c-24.3,0-44,19.7-44,44s19.7,44,44,44s44-19.7,44-44S-180.7,340-205,340z M-205,420c-19.9,0-36-16.1-36-36
		s16.1-36,36-36s36,16.1,36,36S-185.1,420-205,420z"/>
</g>
<g class="hover" fill="black">
	<path d="M-203.8,371c1.6,0,3-0.6,4.1-1.8c1.1-1.2,1.7-2.6,1.7-4.2c0-1.7-0.6-3.1-1.7-4.2c-1.1-1.2-2.5-1.8-4.1-1.8
		c-1.6,0-3,0.6-4.1,1.8c-1.2,1.2-1.7,2.6-1.7,4.2c0,1.7,0.6,3.1,1.7,4.2C-206.8,370.4-205.5,371-203.8,371z"/>
	<path d="M-199.4,402.2c-0.7,0.2-1.2,0.3-1.8,0.3c-1.1,0-1.9-0.2-2.3-0.7c-0.5-0.4-0.7-1.3-0.7-2.5c0-0.5,0.1-1.2,0.2-2.2
		c0.1-1,0.3-1.8,0.5-2.5l2.1-9.2c0.2-0.8,0.4-1.8,0.4-2.8c0.1-1,0.1-1.7,0.1-2.1c0-1.9-0.6-3.5-1.7-4.7s-2.7-1.8-4.8-1.8
		c-1.1,0-2.4,0.2-3.7,0.7c-1.3,0.5-2.6,1.1-4,1.8c0,0,0.3,2.5,0.9,2.2c0.6-0.2,1.2-0.3,1.7-0.3c1.1,0,1.9,0.2,2.3,0.7
		s0.6,1.3,0.6,2.5c0,0.7-0.1,1.4-0.2,2.2c-0.1,0.8-0.3,1.6-0.5,2.5l-2.1,9.2c-0.2,1-0.3,1.8-0.4,2.6c-0.1,0.8-0.1,1.5-0.1,2.3
		c0,1.9,0.6,3.5,1.7,4.7c1.2,1.2,2.8,1.9,4.9,1.9c1.4,0,2.5-0.2,3.6-0.6c1-0.4,2.4-1.1,4.1-1.9C-198.6,404.5-198.8,402-199.4,402.2z
		"/>
</g>
</svg>
