<?xml version="1.0" encoding="utf-8"?>
<!-- Generator: Adobe Illustrator 19.0.0, SVG Export Plug-In . SVG Version: 6.00 Build 0)  -->
<svg version="1.1" id="Layer_1" xmlns="http://www.w3.org/2000/svg" xmlns:xlink="http://www.w3.org/1999/xlink" x="0px" y="0px"
	 viewBox="-250.1 357.2 91.4 56.7" style="enable-background:new -250.1 357.2 91.4 56.7;" xml:space="preserve">
<g class="common">
	<path d="M-159.2,395.8l-6.1-22.3c-0.7-4-2.6-7.6-5.5-10.5c-3.7-3.7-8.7-5.8-14-5.8c-3.2,0-6.4,0.8-9.2,2.2
		c-0.3,0.1-0.5,0.2-0.7,0.2h-19.5c-0.2,0-0.5-0.1-0.7-0.2c-2.8-1.5-6-2.2-9.2-2.2c-5.3,0-10.2,2-14,5.8c-2.8,2.8-4.7,6.5-5.5,10.5
		l-6,22.3c-1.8,6.4,1.3,13.2,7.4,16l2,0.9c1.7,0.8,3.5,1.2,5.4,1.2c3.9,0,7.5-1.7,9.9-4.7l8-9.7c1.8-2.2,4.4-3.4,7.2-3.4h10.6
		c2.8,0,5.5,1.2,7.2,3.4l8,9.7c2.4,3,6,4.7,9.9,4.7c1.9,0,3.7-0.4,5.4-1.2l2-0.9C-160.5,409-157.4,402.2-159.2,395.8z M-169.5,405.4
		l-2,0.9c-2.4,1.1-5.3,0.4-6.9-1.6l-8-9.7c-3.1-3.8-7.7-6-12.7-6h-10.6c-4.9,0-9.5,2.2-12.7,6l-8,9.7c-1.6,2-4.5,2.7-6.9,1.6l-2-0.9
		c-2.9-1.3-4.4-4.7-3.6-7.8l6.1-22.4l0.1-0.3c0.5-2.6,1.7-5,3.5-6.9c2.4-2.4,5.6-3.7,9-3.7c2.1,0,4.1,0.5,5.9,1.4c1.3,0.7,2.6,1,4,1
		h19.6c1.3,0,2.7-0.3,4-1c1.8-0.9,3.8-1.4,5.9-1.4c3.4,0,6.6,1.3,9,3.7c1.9,1.9,3.1,4.2,3.6,6.9l6.2,22.8
		C-165,400.8-166.5,404.1-169.5,405.4z"/>
	<circle cx="-183.6" cy="372.4" r="4.6"/>
	<circle cx="-194.2" cy="381.1" r="4.6"/>
</g>
<g class="hover" fill="#2C17E7">
	<path d="M-218,373.9h-2.1v-2.1c0-1.9-1.6-3.5-3.5-3.5c-1.9,0-3.5,1.6-3.5,3.5v2.1h-2.1c-1.9,0-3.5,1.6-3.5,3.5
		c0,1.9,1.6,3.5,3.5,3.5h2.1v2.1c0,1.9,1.6,3.5,3.5,3.5c1.9,0,3.5-1.6,3.5-3.5v-2.1h2.1c1.9,0,3.5-1.6,3.5-3.5
		C-214.5,375.5-216.1,373.9-218,373.9z"/>
</g>
</svg>
