<?xml version="1.0" encoding="utf-8"?>
<!-- Generator: Adobe Illustrator 19.0.0, SVG Export Plug-In . SVG Version: 6.00 Build 0)  -->
<svg version="1.1" id="Layer_1" xmlns="http://www.w3.org/2000/svg" xmlns:xlink="http://www.w3.org/1999/xlink" x="0px" y="0px"
	 viewBox="-488 681 116.2 100" style="enable-background:new -488 681 116.2 100;" xml:space="preserve">
<g class="common">
	<path d="M-436.5,744.2l-7.9,7.9V770c0,3.4,2.9,6.2,6.5,6.2h7.7v-7.9h-6.4L-436.5,744.2L-436.5,744.2z"/>
	<path d="M-436.5,694.4h6.4v-7.9h-7.7c-3.6,0-6.5,2.8-6.5,6.2v17.7l7.9,7.8L-436.5,694.4L-436.5,694.4z"/>
	<path d="M-390.5,689.3l-32.3-8.2c-2-0.5-3.7,1.8-3.7,5.1v89.7c0,3.3,1.7,5.6,3.7,5.1l32.3-8.2c1.4-0.4,2.5-2.8,2.5-5.5v-72.4
		C-388,692.1-389.1,689.6-390.5,689.3z M-413.9,735.9c-2.7,0-4.9-2.2-4.9-4.9s2.2-4.9,4.9-4.9s4.9,2.2,4.9,4.9
		C-409,733.7-411.2,735.9-413.9,735.9z"/>
</g>
<g class="hover" fill="black">
	<path d="M-431.5,728.1C-431.5,728.1-431.6,728-431.5,728.1l-22.8-22.8c-1.5-1.5-4.1-1.5-5.6,0s-1.5,4.1,0,5.6l16.3,16.3h-40.5
		c-2.2,0-3.9,1.8-3.9,4s1.8,4,4,4h40.5l-16.6,16.7c-1.5,1.5-1.5,4.1,0,5.6s4,1.5,5.6,0l22.6-22.7c0.1-0.1,0.2-0.2,0.3-0.4
		c1-0.7,1.6-1.9,1.6-3.2C-430,729.9-430.6,728.8-431.5,728.1z"/>
</g>
</svg>
