<?xml version="1.0" encoding="UTF-8" ?>
<!DOCTYPE svg PUBLIC "-//W3C//DTD SVG 1.1//EN" "http://www.w3.org/Graphics/SVG/1.1/DTD/svg11.dtd">
<svg width="792pt" height="220pt" viewBox="0 0 792 220" version="1.1" xmlns="http://www.w3.org/2000/svg">
<!--<path fill="#ffffff" d=" M 0.00 0.00 L 792.00 0.00 L 792.00 220.00 L 0.00 220.00 L 0.00 0.00 Z" />-->
<path fill="#ff312a" d=" M 702.90 1.68 C 704.97 0.15 707.13 1.95 708.99 2.94 C 725.66 12.89 742.70 22.21 759.38 32.15 C 741.31 42.25 723.29 52.46 705.60 63.22 C 694.84 57.54 684.49 51.10 673.87 45.16 C 666.26 40.58 658.30 36.57 651.13 31.31 C 668.46 21.58 685.55 11.39 702.90 1.68 Z" />
<path fill="#f12722" d=" M 650.24 49.08 C 650.98 43.18 649.49 37.05 651.13 31.31 C 658.30 36.57 666.26 40.58 673.87 45.16 C 684.49 51.10 694.84 57.54 705.60 63.22 C 705.68 68.92 705.64 74.61 705.60 80.31 C 700.16 77.98 695.43 74.31 690.02 71.93 C 681.71 68.21 674.06 63.24 666.25 58.61 C 660.77 55.68 655.38 52.55 650.24 49.08 Z" />
<path fill="#cd100c" d=" M 705.60 63.22 C 723.29 52.46 741.31 42.25 759.38 32.15 C 759.42 37.86 759.33 43.57 759.47 49.28 C 754.17 52.49 748.94 55.84 743.47 58.74 C 730.77 65.81 718.32 73.30 705.60 80.31 C 705.64 74.61 705.68 68.92 705.60 63.22 Z" />
<path fill="#ff312a" d=" M 666.25 58.61 C 674.06 63.24 681.71 68.21 690.02 71.93 C 695.43 74.31 700.16 77.98 705.60 80.31 C 718.32 73.30 730.77 65.81 743.47 58.74 C 747.80 62.64 753.30 64.96 758.37 67.74 C 755.87 70.99 752.27 72.88 748.69 74.67 C 734.37 82.95 719.98 91.12 705.74 99.55 C 701.14 97.59 696.88 94.94 692.57 92.44 C 681.28 86.09 670.16 79.48 658.88 73.15 C 656.23 71.60 653.91 69.58 651.47 67.75 C 656.34 64.64 661.98 62.57 666.25 58.61 Z" />
<path fill="#f22722" d=" M 650.38 72.01 C 650.60 70.62 649.86 68.52 651.47 67.75 C 653.91 69.58 656.23 71.60 658.88 73.15 C 670.16 79.48 681.28 86.09 692.57 92.44 C 696.88 94.94 701.14 97.59 705.74 99.55 C 705.21 111.67 706.35 123.84 705.06 135.92 C 689.73 127.32 674.52 118.52 659.35 109.65 C 656.40 107.95 653.30 106.45 650.62 104.33 C 650.10 93.58 650.60 82.78 650.38 72.01 Z" />
<path fill="#cd110c" d=" M 758.37 67.74 C 759.71 69.56 759.38 71.86 759.43 73.97 C 759.32 83.64 759.49 93.30 759.35 102.97 C 759.76 104.66 757.80 105.13 756.83 105.97 C 739.49 115.81 722.13 125.61 705.06 135.92 C 706.35 123.84 705.21 111.67 705.74 99.55 C 719.98 91.12 734.37 82.95 748.69 74.67 C 752.27 72.88 755.87 70.99 758.37 67.74 Z" />
<path fill="#ffcc00" d=" M 280.72 124.81 C 284.12 121.31 289.04 124.39 293.10 124.52 C 301.41 124.68 309.72 124.54 318.03 124.58 C 321.84 124.80 325.29 122.50 329.05 122.63 C 334.17 124.27 335.91 130.00 337.91 134.42 C 341.97 130.03 347.73 128.02 353.25 126.19 C 356.39 125.25 359.66 124.30 362.98 124.60 C 364.99 125.02 366.23 127.06 366.18 129.03 C 366.02 139.36 365.37 149.69 365.68 160.02 C 368.18 156.52 370.21 152.32 374.21 150.25 C 380.27 147.09 388.23 149.47 392.08 155.00 C 397.18 161.84 396.45 170.88 396.64 178.94 C 396.97 185.98 396.55 193.05 397.10 200.07 C 397.09 203.94 401.42 206.11 401.39 209.98 C 401.56 213.21 399.16 216.02 396.28 217.16 C 391.45 219.17 386.05 218.78 380.94 218.64 C 376.90 218.50 372.01 217.10 370.46 212.93 C 369.12 208.61 372.79 205.04 373.19 200.89 C 373.92 193.66 374.07 186.35 373.42 179.11 C 373.07 176.61 372.72 173.91 371.02 171.94 C 369.91 170.70 367.30 170.82 366.70 172.51 C 365.33 175.14 365.61 178.22 365.53 181.09 C 365.64 187.39 365.33 193.70 365.85 199.99 C 365.92 204.21 370.39 207.55 368.82 211.93 C 367.65 216.60 362.39 218.46 358.06 218.64 C 352.48 218.78 346.51 219.23 341.36 216.67 C 338.44 215.34 336.52 212.15 336.82 208.94 C 336.97 204.69 341.89 202.49 341.77 198.10 C 343.27 183.80 342.73 169.35 342.63 155.00 C 342.28 151.77 343.29 147.70 340.36 145.40 C 340.12 149.33 340.47 153.66 338.03 157.02 C 335.88 160.19 331.17 161.52 327.97 159.12 C 323.36 155.69 322.76 149.47 319.82 144.86 C 318.94 146.44 318.21 148.13 318.33 149.98 C 318.27 163.64 318.35 177.31 318.30 190.97 C 318.38 193.46 318.27 196.16 319.65 198.34 C 321.33 200.31 323.89 201.38 325.33 203.56 C 327.50 207.50 326.32 212.98 322.59 215.56 C 318.07 218.75 312.25 218.71 306.94 218.89 C 300.68 218.78 294.05 218.73 288.41 215.63 C 284.34 213.40 282.46 207.77 284.67 203.62 C 286.15 200.58 291.34 200.82 291.45 196.91 C 292.97 186.02 292.54 174.97 293.09 164.01 C 293.23 157.69 293.64 151.27 292.19 145.05 C 288.39 149.43 287.58 156.09 282.43 159.37 C 279.61 161.54 275.43 160.22 273.76 157.26 C 270.77 151.95 271.80 145.56 273.17 139.91 C 274.63 134.48 276.73 128.92 280.72 124.81 Z" />
<path fill="#ffcc00" d=" M 478.01 124.04 C 481.75 121.71 486.01 124.62 489.99 124.56 C 498.00 124.64 506.02 124.55 514.03 124.60 C 517.84 124.82 521.30 122.77 525.04 122.58 C 528.11 123.14 530.11 125.88 531.56 128.43 C 535.54 135.86 537.50 144.57 536.18 152.96 C 535.51 158.09 529.44 162.41 524.64 159.35 C 519.61 156.02 519.42 149.27 515.91 144.78 C 514.14 148.64 514.67 152.92 514.63 157.03 C 514.64 168.35 514.65 179.67 514.61 190.99 C 514.68 193.38 514.64 195.96 515.87 198.10 C 517.66 200.31 520.51 201.51 521.99 204.01 C 523.76 208.03 522.56 213.36 518.72 215.76 C 513.77 218.90 507.65 218.81 502.00 218.88 C 495.88 218.69 489.26 218.59 483.97 215.08 C 480.41 212.70 479.29 207.78 480.85 203.92 C 482.06 201.40 485.13 200.85 487.13 199.13 C 487.92 197.50 488.09 195.64 488.32 193.86 C 489.15 179.93 489.57 165.98 489.48 152.02 C 489.52 149.60 489.02 147.23 488.26 144.95 C 485.04 149.77 483.73 156.20 478.59 159.50 C 475.66 161.61 471.58 160.00 470.03 156.99 C 467.02 151.63 468.21 145.09 469.66 139.43 C 471.34 133.86 473.41 127.89 478.01 124.04 Z" />
<path fill="#ffcc00" d=" M 1.00 134.90 C -0.87 129.80 3.43 123.61 9.00 124.25 C 19.99 125.03 31.00 124.26 42.00 124.21 C 48.94 124.01 56.23 127.19 59.52 133.56 C 64.84 143.77 63.01 156.93 55.74 165.75 C 62.95 170.28 67.88 178.37 67.72 186.99 C 68.46 198.03 63.96 210.44 53.76 215.83 C 47.66 219.06 40.57 218.27 33.95 217.77 C 25.98 217.49 17.97 217.28 10.03 218.19 C 7.47 218.57 4.59 218.19 2.79 216.15 C 0.61 214.10 0.64 210.87 0.82 208.11 C 0.86 204.36 5.44 202.76 5.72 199.06 C 7.26 186.48 7.40 173.76 7.53 161.09 C 7.69 155.20 7.83 149.28 7.20 143.41 C 6.74 139.58 1.79 138.62 1.00 134.90 Z" />
<path fill="#ffcc00" d=" M 140.39 125.58 C 144.73 124.07 150.16 123.97 153.70 127.31 C 158.11 131.64 156.93 139.50 152.44 143.35 C 147.71 147.34 141.14 149.31 135.02 148.11 C 129.08 146.73 126.93 139.22 129.17 134.07 C 131.06 129.43 135.93 127.10 140.39 125.58 Z" />
<path fill="#ffcc00" d=" M 164.22 131.15 C 170.09 127.29 177.14 125.66 183.99 124.58 C 186.52 124.06 189.05 125.80 189.72 128.24 C 190.95 132.69 189.97 137.33 189.81 141.85 C 188.84 160.90 189.00 180.00 189.28 199.07 C 188.46 203.29 194.16 204.20 194.42 208.04 C 195.12 212.32 192.46 216.99 188.08 217.89 C 182.20 219.20 176.04 218.85 170.08 218.38 C 166.44 218.11 163.23 216.17 161.09 213.26 C 156.71 219.28 148.65 218.89 142.03 218.71 C 136.79 218.50 130.14 217.87 127.96 212.20 C 122.01 217.33 113.78 219.25 106.09 218.75 C 102.50 218.57 102.43 214.36 102.10 211.71 C 99.36 214.27 96.59 217.11 92.91 218.27 C 88.26 219.28 82.89 219.03 79.06 215.90 C 74.28 212.16 72.92 205.79 72.28 200.07 C 71.01 190.12 72.45 180.04 71.34 170.09 C 71.05 166.86 67.74 165.42 66.24 162.87 C 64.60 158.77 67.21 153.85 71.34 152.53 C 77.94 150.34 84.98 148.91 91.95 149.51 C 94.35 150.13 94.84 152.91 94.73 155.02 C 94.71 166.68 94.72 178.33 94.70 189.99 C 94.84 193.13 94.83 196.65 96.92 199.21 C 98.98 200.81 101.14 197.84 101.36 195.94 C 102.56 187.23 102.35 178.35 101.61 169.60 C 101.53 166.30 97.74 164.94 96.92 161.93 C 95.65 158.41 97.56 154.10 101.14 152.89 C 107.08 150.49 113.54 149.15 119.95 149.38 C 123.81 149.47 125.65 153.76 125.57 157.11 C 125.31 170.06 125.44 183.02 125.39 195.97 C 124.90 199.48 128.65 201.18 130.38 203.67 C 133.89 198.84 133.25 192.62 133.31 186.98 C 133.17 182.11 133.42 177.18 132.53 172.37 C 130.94 169.87 127.50 168.36 127.53 164.99 C 126.96 161.39 128.96 157.81 132.16 156.19 C 137.57 153.21 143.43 150.98 149.46 149.61 C 151.41 149.43 154.00 148.68 155.45 150.47 C 156.89 151.93 156.69 154.12 156.78 156.00 C 156.77 169.34 156.69 182.69 156.79 196.03 C 156.54 199.71 159.00 202.51 161.21 205.12 C 163.04 203.80 165.31 202.46 165.34 199.91 C 165.87 192.62 166.35 185.32 166.22 178.01 C 166.13 169.47 166.61 160.89 165.39 152.41 C 164.87 148.15 159.77 146.38 159.26 142.13 C 158.34 137.85 160.55 133.40 164.22 131.15 Z" />
<path fill="#ffcc00" d=" M 225.76 129.83 C 231.29 127.52 236.98 125.10 243.00 124.53 C 246.68 123.99 248.88 127.82 248.65 131.05 C 248.70 152.35 248.63 173.65 248.67 194.95 C 248.35 199.36 253.42 201.70 253.42 206.05 C 253.76 209.59 251.64 213.01 248.57 214.68 C 243.00 217.82 236.41 219.10 230.05 218.66 C 227.16 218.39 227.52 214.70 226.98 212.65 C 223.97 215.75 220.49 218.89 215.96 219.23 C 209.23 220.11 203.33 215.48 199.85 210.14 C 191.81 197.89 189.96 181.80 194.94 168.02 C 197.59 160.02 203.08 152.24 211.38 149.48 C 216.35 147.82 221.55 149.58 225.87 152.11 C 225.82 150.18 225.91 148.24 225.54 146.34 C 223.64 144.13 220.05 143.24 219.58 139.98 C 218.49 135.49 221.79 131.43 225.76 129.83 Z" />
<path fill="#ffcc00" d=" M 775.30 126.49 C 780.20 123.93 786.26 126.73 788.47 131.55 C 792.01 137.08 790.80 143.80 791.03 149.99 C 791.60 159.90 788.74 169.74 784.50 178.61 C 783.21 180.82 781.56 184.30 778.43 183.53 C 776.08 182.16 775.08 179.40 773.96 177.06 C 769.32 165.72 766.57 153.34 767.61 141.05 C 768.23 135.57 770.07 129.26 775.30 126.49 Z" />
<path fill="#ffffff" d=" M 32.40 140.01 C 37.05 140.67 37.63 146.20 37.70 149.99 C 37.75 154.64 38.29 161.27 32.65 162.95 C 31.72 155.35 32.16 147.64 32.40 140.01 Z" />
<path fill="#ffcc00" d=" M 422.04 149.15 C 428.78 147.79 435.99 150.41 440.57 155.48 C 446.83 162.28 449.92 171.97 448.58 181.14 C 448.23 183.24 447.43 185.37 445.92 186.92 C 444.34 188.46 441.99 188.18 439.99 188.25 C 433.84 188.20 427.70 188.21 421.56 188.20 C 422.24 192.50 424.63 196.96 429.01 198.37 C 432.39 199.03 435.52 196.92 438.02 194.89 C 439.62 193.70 441.70 191.57 443.72 193.28 C 447.33 196.28 447.56 201.81 445.95 205.92 C 441.31 215.21 430.28 221.23 419.96 218.86 C 411.87 217.28 405.96 210.44 402.86 203.15 C 397.59 190.53 397.77 175.44 404.27 163.30 C 407.93 156.48 414.19 150.51 422.04 149.15 Z" />
<path fill="#ffcc00" d=" M 545.61 151.49 C 552.57 147.97 561.37 147.62 568.16 151.72 C 572.67 154.28 575.80 158.55 578.58 162.81 C 577.33 159.21 578.16 154.76 581.52 152.62 C 587.60 148.79 595.14 149.00 602.05 149.37 C 606.58 149.58 611.09 151.89 612.96 156.19 C 615.52 150.47 622.36 149.40 627.94 149.26 C 632.72 149.32 637.84 148.60 642.33 150.69 C 645.11 151.92 646.91 154.92 646.70 157.96 C 646.86 160.95 644.34 163.13 643.85 165.94 C 644.51 169.52 646.01 172.88 647.45 176.20 C 649.66 172.82 651.64 169.01 651.77 164.91 C 650.75 161.70 648.49 158.52 649.68 155.02 C 650.47 151.33 654.52 149.72 657.90 149.39 C 661.58 149.11 665.39 148.96 668.98 149.95 C 673.80 151.21 676.07 157.87 672.86 161.73 C 669.72 164.00 665.91 165.88 665.10 170.10 C 660.59 182.53 656.29 195.04 651.70 207.45 C 649.97 211.42 648.38 215.99 644.58 218.45 C 641.46 220.10 638.68 217.15 637.31 214.65 C 632.78 206.78 629.98 198.08 625.94 189.98 C 621.90 197.93 619.37 206.55 615.57 214.61 C 614.49 216.74 612.59 218.93 609.96 218.73 C 606.56 218.53 604.78 215.20 603.52 212.47 C 597.52 198.70 592.25 184.62 585.97 170.98 C 584.82 167.98 582.13 166.21 579.34 164.93 C 583.58 173.89 584.59 184.30 582.34 193.94 C 580.01 203.02 574.04 211.18 565.96 215.96 C 557.79 220.57 546.76 220.69 539.16 214.84 C 532.15 209.43 528.52 200.61 527.64 191.98 C 527.09 184.61 527.34 177.00 529.97 170.01 C 532.82 162.30 538.19 155.25 545.61 151.49 Z" />
<path fill="#ffcc00" d=" M 684.65 151.63 C 690.25 148.29 697.51 147.94 703.43 150.65 C 709.43 153.51 713.74 159.14 715.97 165.30 C 718.18 171.18 719.40 177.87 717.17 183.93 C 716.42 186.14 714.56 188.23 712.06 188.17 C 705.02 188.35 697.97 188.08 690.93 188.27 C 691.68 192.71 694.38 197.42 699.06 198.51 C 703.92 198.85 706.96 194.55 710.92 192.63 C 714.23 192.59 715.68 196.35 716.29 199.05 C 717.12 204.98 713.26 210.36 708.85 213.89 C 703.08 218.86 694.74 220.67 687.47 218.39 C 681.65 216.63 677.13 212.02 674.15 206.88 C 668.37 196.66 667.32 184.18 669.94 172.85 C 672.21 164.45 676.85 156.03 684.65 151.63 Z" />
<path fill="#ffcc00" d=" M 727.88 151.85 C 732.47 149.93 737.60 148.38 742.57 149.60 C 744.94 151.45 744.39 154.85 744.99 157.47 C 747.35 153.89 750.11 149.40 754.91 149.22 C 759.73 148.45 764.01 152.17 765.49 156.53 C 768.74 164.27 767.50 174.30 761.22 180.17 C 758.29 182.97 753.19 183.69 749.95 181.03 C 748.11 179.44 746.61 177.50 744.97 175.72 C 744.73 183.56 744.08 191.57 745.61 199.31 C 747.28 200.68 749.33 201.55 750.87 203.08 C 754.32 207.49 752.52 215.11 747.16 217.12 C 742.29 218.78 737.06 218.54 731.99 218.57 C 727.63 218.51 722.97 218.20 719.22 215.77 C 716.14 213.72 715.16 209.56 716.20 206.15 C 717.09 202.52 721.06 200.38 721.21 196.48 C 721.61 188.98 721.83 181.44 721.69 173.93 C 721.97 170.29 717.36 169.28 716.45 166.15 C 716.23 163.64 716.14 160.85 717.67 158.69 C 720.07 155.21 724.12 153.46 727.88 151.85 Z" />
<path fill="#ffffff" d=" M 611.58 165.50 C 610.94 163.57 612.28 161.79 612.77 159.98 C 614.38 162.79 616.79 165.06 618.34 167.92 C 618.54 170.84 617.34 173.73 615.37 175.84 C 613.96 172.45 612.52 169.05 611.58 165.50 Z" />
<path fill="#ffffff" d=" M 424.16 164.12 C 428.62 163.34 428.72 169.35 428.59 172.39 C 426.20 172.47 423.81 172.51 421.43 172.55 C 421.32 169.55 421.66 166.17 424.16 164.12 Z" />
<path fill="#ffffff" d=" M 690.58 172.42 C 690.92 169.45 691.01 165.57 694.05 164.00 C 697.12 163.76 697.96 167.64 698.14 170.01 C 698.44 174.11 693.04 172.04 690.58 172.42 Z" />
<path fill="#ffffff" d=" M 221.41 166.41 C 224.17 165.38 225.16 169.08 225.43 171.09 C 226.11 179.01 226.20 187.08 225.06 194.95 C 224.64 197.22 223.47 201.41 220.38 199.54 C 216.70 194.90 217.27 188.52 217.17 182.95 C 217.45 177.33 217.48 170.87 221.41 166.41 Z" />
<path fill="#ffffff" d=" M 553.18 167.29 C 554.67 166.72 555.43 168.95 555.99 169.99 C 558.12 176.07 558.80 182.55 559.48 188.92 C 559.60 192.46 560.33 196.36 558.52 199.61 C 555.98 200.84 554.77 197.80 554.27 195.89 C 552.38 188.72 551.32 181.33 550.79 173.95 C 550.87 171.68 550.95 168.48 553.18 167.29 Z" />
<path fill="#ffffff" d=" M 32.42 178.19 C 37.43 177.52 39.71 182.75 39.75 186.95 C 39.99 192.21 40.93 199.58 34.82 201.91 C 33.76 200.83 32.35 199.78 32.44 198.09 C 31.96 191.48 32.04 184.81 32.42 178.19 Z" />
<path fill="#ffcc00" d=" M 776.25 188.29 C 779.92 186.61 784.45 188.04 786.84 191.20 C 792.41 198.00 792.40 208.97 786.80 215.75 C 783.78 219.69 777.54 220.46 773.70 217.30 C 769.27 213.60 767.74 207.52 768.19 201.96 C 768.26 196.47 771.10 190.64 776.25 188.29 Z" />
</svg>
