<?xml version="1.0" encoding="utf-8"?>
<!-- Generator: Adobe Illustrator 19.0.0, SVG Export Plug-In . SVG Version: 6.00 Build 0)  -->
<svg version="1.1" id="Layer_1" xmlns="http://www.w3.org/2000/svg" xmlns:xlink="http://www.w3.org/1999/xlink" x="0px" y="0px"
	 viewBox="-285 372 29.7 21.1" style="enable-background:new -285 372 29.7 21.1;" xml:space="preserve">
<style type="text/css">
	.st0{fill:none;}
</style>
<g class="common">
	<path d="M-268.8,387.4c-0.4,0-0.7-0.1-1.1-0.1l-0.4-2.4c1.1-0.8,1.7-2,1.7-2.5v-1.1c0.5,0,0.9-0.6,0.9-1.4c0-0.7-0.4-1.3-0.8-1.4
		c0.1-0.4,0.2-1.1,0.2-1.8c0.6,0.1,1.5-0.2,1.5-1c-2.7,0-2.7-3.7-4.5-3.7c-1.8,0-2.7,1.4-3,1.7c-2.4-0.8-3.6,0.7-3.8,1.7
		c0,0.6,0.2,2.2,0.4,3c-0.5,0.1-0.8,0.6-0.8,1.4s0.4,1.4,0.9,1.4v1.1c0,0.5,0.6,1.6,1.7,2.5l-0.4,2.5c-7.7,0.4-8.6,2.2-8.6,5.8
		c7.4,0,20,0,20,0s0-0.4,0-0.8C-266.8,391.3-268.3,389.5-268.8,387.4z"/>
</g>
<g class="hover" fill="black">
	<polygon class="st0" points="-263.9,385.1 -261.9,385.1 -261.9,388.1 -259.9,388.1 -259.9,385.1 -257.9,385.1 -260.9,381.1 	"/>
	<path d="M-260.9,378.1c-3.9,0-7,3.1-7,7c0,3.9,3.1,7,7,7s7-3.1,7-7C-253.9,381.2-257,378.1-260.9,378.1z M-259.9,385.1v3h-2v-3h-2
		l3-4l3,4H-259.9z"/>
</g>
</svg>
